<?xml version="1.0" encoding="UTF-8"?><svg width="24" height="24" viewBox="0 0 48 48" fill="none" xmlns="http://www.w3.org/2000/svg"><rect width="48" height="48" fill="white" fill-opacity="0.01"/><path fill-rule="evenodd" clip-rule="evenodd" d="M24 3V6.15V3Z" fill="#f8e71c"/><path d="M24 3V6.15" stroke="#f8e71c" stroke-width="2" stroke-linecap="round" stroke-linejoin="round"/><path fill-rule="evenodd" clip-rule="evenodd" d="M38.8492 9.15076L36.6219 11.3781L38.8492 9.15076Z" fill="#f8e71c"/><path d="M38.8492 9.15076L36.6219 11.3781" stroke="#f8e71c" stroke-width="2" stroke-linecap="round" stroke-linejoin="round"/><path fill-rule="evenodd" clip-rule="evenodd" d="M45 24H41.85H45Z" fill="#f8e71c"/><path d="M45 24H41.85" stroke="#f8e71c" stroke-width="2" stroke-linecap="round" stroke-linejoin="round"/><path fill-rule="evenodd" clip-rule="evenodd" d="M38.8492 38.8492L36.6219 36.6219L38.8492 38.8492Z" fill="#f8e71c"/><path d="M38.8492 38.8492L36.6219 36.6219" stroke="#f8e71c" stroke-width="2" stroke-linecap="round" stroke-linejoin="round"/><path fill-rule="evenodd" clip-rule="evenodd" d="M24 45V41.85V45Z" fill="#f8e71c"/><path d="M24 45V41.85" stroke="#f8e71c" stroke-width="2" stroke-linecap="round" stroke-linejoin="round"/><path fill-rule="evenodd" clip-rule="evenodd" d="M9.15076 38.8492L11.3781 36.6219L9.15076 38.8492Z" fill="#f8e71c"/><path d="M9.15076 38.8492L11.3781 36.6219" stroke="#f8e71c" stroke-width="2" stroke-linecap="round" stroke-linejoin="round"/><path fill-rule="evenodd" clip-rule="evenodd" d="M3 24H6.15H3Z" fill="#f8e71c"/><path d="M3 24H6.15" stroke="#f8e71c" stroke-width="2" stroke-linecap="round" stroke-linejoin="round"/><path fill-rule="evenodd" clip-rule="evenodd" d="M9.15076 9.15076L11.3781 11.3781L9.15076 9.15076Z" fill="#f8e71c"/><path d="M9.15076 9.15076L11.3781 11.3781" stroke="#f8e71c" stroke-width="2" stroke-linecap="round" stroke-linejoin="round"/><path d="M24 36C30.6274 36 36 30.6274 36 24C36 17.3726 30.6274 12 24 12C17.3726 12 12 17.3726 12 24C12 30.6274 17.3726 36 24 36Z" fill="#f8e71c" stroke="#f8e71c" stroke-width="2" stroke-linejoin="round"/></svg>